<?xml version="1.0" encoding="utf-8"?>
<!-- Generator: Adobe Illustrator 15.0.2, SVG Export Plug-In . SVG Version: 6.00 Build 0)  -->
<!DOCTYPE svg PUBLIC "-//W3C//DTD SVG 1.1//EN" "http://www.w3.org/Graphics/SVG/1.1/DTD/svg11.dtd">
<svg version="1.1" id="Vrstva_1" xmlns="http://www.w3.org/2000/svg" xmlns:xlink="http://www.w3.org/1999/xlink" x="0px" y="0px"
	 width="200px" height="200px" viewBox="0 0 200 200" enable-background="new 0 0 200 200" xml:space="preserve">
<g>
	<path d="M97.61,186.853c-38.874,0-70.5-10.99-70.5-24.5s31.626-24.5,70.5-24.5s70.5,10.99,70.5,24.5S136.484,186.853,97.61,186.853
		z"/>
	<path fill="#FFFFFF" d="M97.61,138.353c38.66,0,70,10.745,70,24s-31.34,24-70,24s-70-10.745-70-24S58.95,138.353,97.61,138.353
		 M97.61,137.353c-18.805,0-36.499,2.516-49.822,7.083c-13.657,4.683-21.178,11.046-21.178,17.917s7.521,13.234,21.178,17.917
		c13.323,4.567,31.017,7.083,49.822,7.083c18.806,0,36.499-2.516,49.822-7.083c13.656-4.683,21.178-11.046,21.178-17.917
		s-7.521-13.234-21.178-17.917C134.109,139.868,116.416,137.353,97.61,137.353L97.61,137.353z"/>
</g>
<g>
	<path d="M82.165,165.558V16.656h5.034c1.002-0.391,9.212-3.508,15.941-3.508c2.683,0,4.797,0.508,6.282,1.511
		c2.623,1.77,4.929,4.14,7.369,6.649c5.029,5.168,10.229,10.513,18.77,11.042c15.761,0.977,31.792,25.166,32.467,26.195l0.356,0.543
		l-0.616,0.205c-1.985,0.662-4.385,1.946-7.163,3.433c-6.528,3.494-14.654,7.842-23.964,7.842c-6.603,0-10.304-0.949-13.883-1.866
		c-3.612-0.926-7.347-1.883-14.17-1.883c-7.019,0-8.61,1.664-10.626,3.769c-1.832,1.914-3.903,4.078-10.169,5.527v89.444H82.165z"/>
	<path fill="#FFFFFF" d="M103.141,13.647c2.334,0,4.467,0.389,6.003,1.426c7.997,5.397,13.496,16.977,26.387,17.775
		c15.692,0.972,32.08,25.97,32.08,25.97c-6.666,2.223-17.776,11.249-30.969,11.249c-13.193,0-14.397-3.75-28.053-3.75
		c-13.656,0-7.639,6.388-21.295,9.396v89.344h-4.629V17.156h4.629C87.294,17.156,96.129,13.647,103.141,13.647 M103.141,12.647
		c-6.648,0-14.696,2.992-16.035,3.508h-4.441h-1v1v147.902v1h1h4.629h1v-1V76.509c6.117-1.488,8.279-3.747,10.03-5.576
		c1.933-2.02,3.46-3.615,10.265-3.615c6.76,0,10.464,0.949,14.046,1.868c3.608,0.925,7.341,1.882,14.007,1.882
		c9.435,0,17.622-4.381,24.2-7.901c2.758-1.476,5.141-2.75,7.085-3.399l1.231-0.411l-0.712-1.086
		c-0.68-1.038-16.846-25.428-32.854-26.419c-8.347-0.517-13.479-5.791-18.441-10.892c-2.459-2.528-4.782-4.916-7.447-6.715
		C108.133,13.185,105.925,12.647,103.141,12.647L103.141,12.647z"/>
</g>
<g>
	<path d="M140.444,170.083v-55.751h2.12c0.563-0.216,3.512-1.299,5.959-1.299c1.057,0,1.899,0.207,2.502,0.614
		c0.998,0.673,1.862,1.562,2.778,2.502c1.819,1.871,3.701,3.806,6.741,3.993c5.99,0.37,12.01,9.452,12.263,9.838l0.356,0.543
		l-0.616,0.206c-0.709,0.236-1.586,0.706-2.602,1.249c-2.448,1.31-5.495,2.94-9.021,2.94c-2.484,0-3.874-0.356-5.218-0.7
		c-1.379-0.354-2.681-0.688-5.167-0.688c-2.464,0-2.985,0.545-3.706,1.298c-0.65,0.68-1.452,1.517-3.677,2.076v33.178H140.444z"/>
	<path fill="#FFFFFF" d="M148.523,113.533c0.864,0,1.653,0.145,2.223,0.528c2.96,1.997,4.996,6.285,9.768,6.58
		c5.81,0.359,11.876,9.613,11.876,9.613c-2.468,0.823-6.58,4.164-11.464,4.164c-4.885,0-5.33-1.388-10.385-1.388
		c-5.056,0-2.828,2.364-7.883,3.479v33.073h-1.714v-54.751h1.714C142.658,114.832,145.928,113.533,148.523,113.533 M148.523,112.533
		c-2.423,0-5.297,1.016-6.051,1.299h-1.528h-1v1v54.751v1h1h1.714h1v-1v-32.294c2.079-0.591,2.881-1.428,3.537-2.114
		c0.66-0.688,1.096-1.144,3.346-1.144c2.423,0,3.695,0.326,5.043,0.672c1.373,0.352,2.794,0.716,5.342,0.716
		c3.651,0,6.891-1.733,9.256-3c0.996-0.532,1.855-0.992,2.524-1.216l1.231-0.41l-0.712-1.086c-0.259-0.396-6.412-9.678-12.65-10.063
		c-2.847-0.176-4.579-1.957-6.413-3.843c-0.894-0.917-1.816-1.866-2.856-2.568C150.618,112.769,149.682,112.533,148.523,112.533
		L148.523,112.533z"/>
</g>
<g>
	<path d="M106.165,145.902V90.151h2.12c0.563-0.216,3.512-1.299,5.959-1.299c1.057,0,1.899,0.207,2.502,0.614
		c0.998,0.673,1.862,1.562,2.778,2.503c1.819,1.871,3.701,3.805,6.741,3.993c5.99,0.371,12.01,9.452,12.263,9.838l0.356,0.543
		l-0.616,0.206c-0.709,0.236-1.586,0.706-2.602,1.249c-2.448,1.31-5.495,2.94-9.021,2.94c-2.484,0-3.874-0.356-5.218-0.7
		c-1.379-0.354-2.681-0.688-5.167-0.688c-2.464,0-2.985,0.545-3.706,1.298c-0.65,0.68-1.452,1.517-3.677,2.076v33.178H106.165z"/>
	<path fill="#FFFFFF" d="M114.244,89.353c0.864,0,1.653,0.145,2.223,0.528c2.96,1.997,4.996,6.285,9.768,6.58
		c5.81,0.359,11.876,9.613,11.876,9.613c-2.468,0.823-6.58,4.164-11.464,4.164c-4.885,0-5.33-1.388-10.385-1.388
		c-5.056,0-2.828,2.364-7.883,3.479v33.073h-1.714V90.651h1.714C108.379,90.651,111.648,89.353,114.244,89.353 M114.244,88.353
		c-2.423,0-5.297,1.016-6.051,1.299h-1.528h-1v1v54.751v1h1h1.714h1v-1v-32.293c2.079-0.592,2.881-1.428,3.537-2.115
		c0.66-0.688,1.096-1.144,3.346-1.144c2.423,0,3.695,0.326,5.043,0.672c1.373,0.352,2.794,0.716,5.342,0.716
		c3.651,0,6.891-1.733,9.256-3c0.996-0.532,1.855-0.992,2.524-1.216l1.231-0.41l-0.712-1.086c-0.259-0.396-6.412-9.678-12.65-10.063
		c-2.847-0.176-4.579-1.957-6.413-3.842c-0.894-0.918-1.816-1.867-2.856-2.569C116.339,88.588,115.402,88.353,114.244,88.353
		L114.244,88.353z"/>
</g>
<g>
	<path d="M46.499,162.853v-55.751h2.12c0.563-0.216,3.511-1.299,5.959-1.299c1.057,0,1.899,0.207,2.502,0.614
		c0.998,0.673,1.862,1.562,2.778,2.502c1.82,1.871,3.701,3.806,6.741,3.993c5.991,0.37,12.01,9.452,12.263,9.838l0.356,0.543
		l-0.616,0.206c-0.709,0.236-1.586,0.706-2.602,1.249c-2.448,1.31-5.495,2.94-9.021,2.94c-2.484,0-3.874-0.356-5.218-0.7
		c-1.378-0.354-2.681-0.688-5.167-0.688c-2.464,0-2.985,0.545-3.707,1.298c-0.65,0.68-1.451,1.517-3.676,2.076v33.178H46.499z"/>
	<path fill="#FFFFFF" d="M54.578,106.303c0.864,0,1.654,0.145,2.223,0.528c2.96,1.997,4.996,6.285,9.768,6.58
		c5.81,0.359,11.876,9.613,11.876,9.613c-2.468,0.823-6.58,4.164-11.464,4.164c-4.885,0-5.33-1.388-10.385-1.388
		c-5.056,0-2.828,2.364-7.883,3.479v33.073h-1.714v-54.751h1.714C48.713,107.602,51.983,106.303,54.578,106.303 M54.578,105.303
		c-2.423,0-5.297,1.016-6.05,1.299h-1.529h-1v1v54.751v1h1h1.714h1v-1v-32.294c2.08-0.591,2.88-1.428,3.538-2.114
		c0.659-0.688,1.095-1.144,3.345-1.144c2.423,0,3.695,0.326,5.042,0.672c1.374,0.352,2.794,0.716,5.342,0.716
		c3.651,0,6.891-1.733,9.256-3c0.995-0.532,1.855-0.992,2.524-1.216l1.232-0.41l-0.712-1.086
		c-0.259-0.396-6.413-9.678-12.651-10.063c-2.846-0.176-4.579-1.957-6.413-3.843c-0.893-0.917-1.816-1.866-2.857-2.568
		C56.673,105.538,55.737,105.303,54.578,105.303L54.578,105.303z"/>
</g>
</svg>
