<?xml version="1.0" encoding="UTF-8" standalone="no"?>
<!-- Generator: Adobe Illustrator 15.0.2, SVG Export Plug-In . SVG Version: 6.00 Build 0)  -->

<svg
   xmlns:dc="http://purl.org/dc/elements/1.1/"
   xmlns:cc="http://creativecommons.org/ns#"
   xmlns:rdf="http://www.w3.org/1999/02/22-rdf-syntax-ns#"
   xmlns:svg="http://www.w3.org/2000/svg"
   xmlns="http://www.w3.org/2000/svg"
   xmlns:xlink="http://www.w3.org/1999/xlink"
   xmlns:sodipodi="http://sodipodi.sourceforge.net/DTD/sodipodi-0.dtd"
   xmlns:inkscape="http://www.inkscape.org/namespaces/inkscape"
   version="1.1"
   id="Vrstva_1"
   x="0px"
   y="0px"
   width="200px"
   height="200px"
   viewBox="0 0 200 200"
   enable-background="new 0 0 200 200"
   xml:space="preserve"
   inkscape:version="0.48.2 r9819"
   sodipodi:docname="icon_template3.svg"><metadata
   id="metadata37"><rdf:RDF><cc:Work
       rdf:about=""><dc:format>image/svg+xml</dc:format><dc:type
         rdf:resource="http://purl.org/dc/dcmitype/StillImage" /><dc:title></dc:title></cc:Work></rdf:RDF></metadata><defs
   id="defs35"><linearGradient
     inkscape:collect="always"
     id="linearGradient3786"><stop
       style="stop-color:#ffffff;stop-opacity:1;"
       offset="0"
       id="stop3788" /><stop
       style="stop-color:#ffffff;stop-opacity:0;"
       offset="1"
       id="stop3790" /></linearGradient><linearGradient
     inkscape:collect="always"
     xlink:href="#linearGradient3786"
     id="linearGradient3792"
     x1="81.165"
     y1="89.352"
     x2="169.658"
     y2="89.352"
     gradientUnits="userSpaceOnUse" /></defs><sodipodi:namedview
   pagecolor="#ffffff"
   bordercolor="#666666"
   borderopacity="1"
   objecttolerance="10"
   gridtolerance="10"
   guidetolerance="10"
   inkscape:pageopacity="0"
   inkscape:pageshadow="2"
   inkscape:window-width="1276"
   inkscape:window-height="578"
   id="namedview33"
   showgrid="false"
   inkscape:zoom="1.2535928"
   inkscape:cx="52.399211"
   inkscape:cy="104.36395"
   inkscape:window-x="0"
   inkscape:window-y="0"
   inkscape:window-maximized="0"
   inkscape:current-layer="Vrstva_1" />
<g
   id="g3"
   transform="matrix(1.2685606,0,0,1.919998,-27.485379,-152.8729)"
   style="stroke:#09cff0;stroke-opacity:0;fill:#454545;fill-opacity:1">
	<path
   d="m 97.61,186.853 c -38.874,0 -70.5,-10.99 -70.5,-24.5 0,-13.51 31.626,-24.5 70.5,-24.5 38.874,0 70.5,10.99 70.5,24.5 0,13.51 -31.626,24.5 -70.5,24.5 z"
   id="path5"
   inkscape:connector-curvature="0"
   style="stroke:#09cff0;stroke-opacity:0;fill:#454545;fill-opacity:1" />
	<path
   d="m 97.61,138.353 c 38.66,0 70,10.745 70,24 0,13.255 -31.34,24 -70,24 -38.66,0 -70,-10.745 -70,-24 0,-13.255 31.34,-24 70,-24 m 0,-1 c -18.805,0 -36.499,2.516 -49.822,7.083 -13.657,4.683 -21.178,11.046 -21.178,17.917 0,6.871 7.521,13.234 21.178,17.917 13.323,4.567 31.017,7.083 49.822,7.083 18.806,0 36.499,-2.516 49.822,-7.083 13.656,-4.683 21.178,-11.046 21.178,-17.917 0,-6.871 -7.521,-13.234 -21.178,-17.917 -13.323,-4.568 -31.016,-7.083 -49.822,-7.083 l 0,0 z"
   id="path7"
   inkscape:connector-curvature="0"
   style="fill:#454545;stroke:#09cff0;stroke-opacity:0;fill-opacity:1" />
</g>

<g
   id="g15"
   transform="matrix(0.85862014,0,0,0.84537232,20.004347,29.711211)"
   style="fill:#ededed;fill-opacity:1;stroke:#acacac;stroke-opacity:1">
	<path
   d="m 140.444,170.083 v -55.751 h 2.12 c 0.563,-0.216 3.512,-1.299 5.959,-1.299 1.057,0 1.899,0.207 2.502,0.614 0.998,0.673 1.862,1.562 2.778,2.502 1.819,1.871 3.701,3.806 6.741,3.993 5.99,0.37 12.01,9.452 12.263,9.838 l 0.356,0.543 -0.616,0.206 c -0.709,0.236 -1.586,0.706 -2.602,1.249 -2.448,1.31 -5.495,2.94 -9.021,2.94 -2.484,0 -3.874,-0.356 -5.218,-0.7 -1.379,-0.354 -2.681,-0.688 -5.167,-0.688 -2.464,0 -2.985,0.545 -3.706,1.298 -0.65,0.68 -1.452,1.517 -3.677,2.076 v 33.178 h -2.712 z"
   id="path17"
   inkscape:connector-curvature="0"
   style="fill:#ededed;fill-opacity:1;stroke:#acacac;stroke-opacity:1" />
	<path
   d="m 148.523,113.533 c 0.864,0 1.653,0.145 2.223,0.528 2.96,1.997 4.996,6.285 9.768,6.58 5.81,0.359 11.876,9.613 11.876,9.613 -2.468,0.823 -6.58,4.164 -11.464,4.164 -4.885,0 -5.33,-1.388 -10.385,-1.388 -5.056,0 -2.828,2.364 -7.883,3.479 v 33.073 h -1.714 v -54.751 h 1.714 c 0,10e-4 3.27,-1.298 5.865,-1.298 m 0,-1 c -2.423,0 -5.297,1.016 -6.051,1.299 h -1.528 -1 v 1 54.751 1 h 1 1.714 1 v -1 -32.294 c 2.079,-0.591 2.881,-1.428 3.537,-2.114 0.66,-0.688 1.096,-1.144 3.346,-1.144 2.423,0 3.695,0.326 5.043,0.672 1.373,0.352 2.794,0.716 5.342,0.716 3.651,0 6.891,-1.733 9.256,-3 0.996,-0.532 1.855,-0.992 2.524,-1.216 l 1.231,-0.41 -0.712,-1.086 c -0.259,-0.396 -6.412,-9.678 -12.65,-10.063 -2.847,-0.176 -4.579,-1.957 -6.413,-3.843 -0.894,-0.917 -1.816,-1.866 -2.856,-2.568 -0.688,-0.464 -1.624,-0.7 -2.783,-0.7 l 0,0 z"
   id="path19"
   inkscape:connector-curvature="0"
   style="fill:#ededed;fill-opacity:1;stroke:#acacac;stroke-opacity:1" />
</g>
<g
   id="g21"
   transform="matrix(0.85862014,0,0,0.84537232,31.421362,2.0436117)"
   style="fill:#ededed;fill-opacity:1;stroke:#acacac;stroke-opacity:1">
	<path
   d="M 106.165,145.902 V 90.151 h 2.12 c 0.563,-0.216 3.512,-1.299 5.959,-1.299 1.057,0 1.899,0.207 2.502,0.614 0.998,0.673 1.862,1.562 2.778,2.503 1.819,1.871 3.701,3.805 6.741,3.993 5.99,0.371 12.01,9.452 12.263,9.838 l 0.356,0.543 -0.616,0.206 c -0.709,0.236 -1.586,0.706 -2.602,1.249 -2.448,1.31 -5.495,2.94 -9.021,2.94 -2.484,0 -3.874,-0.356 -5.218,-0.7 -1.379,-0.354 -2.681,-0.688 -5.167,-0.688 -2.464,0 -2.985,0.545 -3.706,1.298 -0.65,0.68 -1.452,1.517 -3.677,2.076 v 33.178 h -2.712 z"
   id="path23"
   inkscape:connector-curvature="0"
   style="fill:#ededed;fill-opacity:1;stroke:#acacac;stroke-opacity:1" />
	<path
   d="m 114.244,89.353 c 0.864,0 1.653,0.145 2.223,0.528 2.96,1.997 4.996,6.285 9.768,6.58 5.81,0.359 11.876,9.613 11.876,9.613 -2.468,0.823 -6.58,4.164 -11.464,4.164 -4.885,0 -5.33,-1.388 -10.385,-1.388 -5.056,0 -2.828,2.364 -7.883,3.479 v 33.073 h -1.714 V 90.651 h 1.714 c 0,0 3.269,-1.298 5.865,-1.298 m 0,-1 c -2.423,0 -5.297,1.016 -6.051,1.299 h -1.528 -1 v 1 54.751 1 h 1 1.714 1 v -1 -32.293 c 2.079,-0.592 2.881,-1.428 3.537,-2.115 0.66,-0.688 1.096,-1.144 3.346,-1.144 2.423,0 3.695,0.326 5.043,0.672 1.373,0.352 2.794,0.716 5.342,0.716 3.651,0 6.891,-1.733 9.256,-3 0.996,-0.532 1.855,-0.992 2.524,-1.216 l 1.231,-0.41 -0.712,-1.086 c -0.259,-0.396 -6.412,-9.678 -12.65,-10.063 -2.847,-0.176 -4.579,-1.957 -6.413,-3.842 -0.894,-0.918 -1.816,-1.867 -2.856,-2.569 -0.688,-0.465 -1.625,-0.7 -2.783,-0.7 l 0,0 z"
   id="path25"
   inkscape:connector-curvature="0"
   style="fill:#ededed;fill-opacity:1;stroke:#acacac;stroke-opacity:1" />
</g>
<g
   id="g27"
   transform="matrix(0.85862014,0,0,0.84537232,2.2395978,1.1081186)"
   style="fill:#ededed;fill-opacity:1;stroke:#acacac;stroke-opacity:1">
	<path
   d="m 46.499,162.853 v -55.751 h 2.12 c 0.563,-0.216 3.511,-1.299 5.959,-1.299 1.057,0 1.899,0.207 2.502,0.614 0.998,0.673 1.862,1.562 2.778,2.502 1.82,1.871 3.701,3.806 6.741,3.993 5.991,0.37 12.01,9.452 12.263,9.838 l 0.356,0.543 -0.616,0.206 c -0.709,0.236 -1.586,0.706 -2.602,1.249 -2.448,1.31 -5.495,2.94 -9.021,2.94 -2.484,0 -3.874,-0.356 -5.218,-0.7 -1.378,-0.354 -2.681,-0.688 -5.167,-0.688 -2.464,0 -2.985,0.545 -3.707,1.298 -0.65,0.68 -1.451,1.517 -3.676,2.076 v 33.178 h -2.712 z"
   id="path29"
   inkscape:connector-curvature="0"
   style="fill:#ededed;fill-opacity:1;stroke:#acacac;stroke-opacity:1" />
	<path
   d="m 54.578,106.303 c 0.864,0 1.654,0.145 2.223,0.528 2.96,1.997 4.996,6.285 9.768,6.58 5.81,0.359 11.876,9.613 11.876,9.613 -2.468,0.823 -6.58,4.164 -11.464,4.164 -4.885,0 -5.33,-1.388 -10.385,-1.388 -5.056,0 -2.828,2.364 -7.883,3.479 v 33.073 h -1.714 v -54.751 h 1.714 c 0,0.001 3.27,-1.298 5.865,-1.298 m 0,-1 c -2.423,0 -5.297,1.016 -6.05,1.299 h -1.529 -1 v 1 54.751 1 h 1 1.714 1 v -1 -32.294 c 2.08,-0.591 2.88,-1.428 3.538,-2.114 0.659,-0.688 1.095,-1.144 3.345,-1.144 2.423,0 3.695,0.326 5.042,0.672 1.374,0.352 2.794,0.716 5.342,0.716 3.651,0 6.891,-1.733 9.256,-3 0.995,-0.532 1.855,-0.992 2.524,-1.216 l 1.232,-0.41 -0.712,-1.086 c -0.259,-0.396 -6.413,-9.678 -12.651,-10.063 -2.846,-0.176 -4.579,-1.957 -6.413,-3.843 -0.893,-0.917 -1.816,-1.866 -2.857,-2.568 -0.686,-0.465 -1.622,-0.7 -2.781,-0.7 l 0,0 z"
   id="path31"
   inkscape:connector-curvature="0"
   style="fill:#ededed;fill-opacity:1;stroke:#acacac;stroke-opacity:1" />
</g>
<g
   id="g9"
   transform="matrix(0.85862014,0,0,0.84537232,20.272687,21.496852)"
   style="fill:#ffffff;fill-opacity:1;stroke:#2a2a2a;stroke-opacity:1">
	<path
   d="M 82.165,165.558 V 16.656 h 5.034 c 1.002,-0.391 9.212,-3.508 15.941,-3.508 2.683,0 4.797,0.508 6.282,1.511 2.623,1.77 4.929,4.14 7.369,6.649 5.029,5.168 10.229,10.513 18.77,11.042 15.761,0.977 31.792,25.166 32.467,26.195 l 0.356,0.543 -0.616,0.205 c -1.985,0.662 -4.385,1.946 -7.163,3.433 -6.528,3.494 -14.654,7.842 -23.964,7.842 -6.603,0 -10.304,-0.949 -13.883,-1.866 -3.612,-0.926 -7.347,-1.883 -14.17,-1.883 -7.019,0 -8.61,1.664 -10.626,3.769 -1.832,1.914 -3.903,4.078 -10.169,5.527 v 89.444 h -5.628 z"
   id="path11"
   inkscape:connector-curvature="0"
   style="fill:#ffffff;fill-opacity:1;stroke:#2a2a2a;stroke-opacity:1" />
	<path
   d="m 103.141,13.647 c 2.334,0 4.467,0.389 6.003,1.426 7.997,5.397 13.496,16.977 26.387,17.775 15.692,0.972 32.08,25.97 32.08,25.97 -6.666,2.223 -17.776,11.249 -30.969,11.249 -13.193,0 -14.397,-3.75 -28.053,-3.75 -13.656,0 -7.639,6.388 -21.295,9.396 v 89.344 H 82.665 V 17.156 h 4.629 c 0,0 8.835,-3.509 15.847,-3.509 m 0,-1 c -6.648,0 -14.696,2.992 -16.035,3.508 h -4.441 -1 v 1 147.902 1 h 1 4.629 1 v -1 -88.548 c 6.117,-1.488 8.279,-3.747 10.03,-5.576 1.933,-2.02 3.46,-3.615 10.265,-3.615 6.76,0 10.464,0.949 14.046,1.868 3.608,0.925 7.341,1.882 14.007,1.882 9.435,0 17.622,-4.381 24.2,-7.901 2.758,-1.476 5.141,-2.75 7.085,-3.399 l 1.231,-0.411 -0.712,-1.086 C 167.766,57.233 151.6,32.843 135.592,31.852 127.245,31.335 122.113,26.061 117.151,20.96 c -2.459,-2.528 -4.782,-4.916 -7.447,-6.715 -1.571,-1.06 -3.779,-1.598 -6.563,-1.598 l 0,0 z"
   id="path13"
   inkscape:connector-curvature="0"
   style="fill:#ffffff;fill-opacity:1;stroke:#2a2a2a;stroke-opacity:1" />
</g></svg>